<?xml version="1.0" standalone="no"?>
<!DOCTYPE svg PUBLIC "-//W3C//DTD SVG 20010904//EN"
 "http://www.w3.org/TR/2001/REC-SVG-20010904/DTD/svg10.dtd">
<svg version="1.0" xmlns="http://www.w3.org/2000/svg"
 width="197.000000pt" height="197.000000pt" viewBox="0 0 197.000000 197.000000"
 preserveAspectRatio="xMidYMid meet">

<g transform="translate(0.000000,197.000000) scale(0.100000,-0.100000)"
fill="#000000" stroke="none">
<path d="M787 1941 c-302 -66 -545 -255 -677 -526 -78 -159 -95 -238 -94 -435
1 -190 16 -267 83 -407 105 -218 260 -373 477 -475 144 -67 215 -82 404 -82
142 -1 177 2 249 22 352 96 620 371 706 724 25 101 30 278 11 384 -66 381
-348 686 -725 786 -113 30 -319 34 -434 9z m447 -56 c165 -48 293 -123 410
-241 265 -264 344 -642 212 -1004 -40 -107 -143 -257 -234 -341 -127 -116
-283 -196 -452 -231 -123 -26 -317 -20 -429 12 -359 103 -624 395 -682 754
-17 106 -7 300 21 396 47 167 157 344 281 453 121 107 293 193 446 222 121 23
314 14 427 -20z"/>
<path d="M835 1795 c-178 -32 -322 -111 -451 -248 -146 -153 -224 -339 -224
-537 l0 -84 70 69 70 69 70 -69 70 -69 0 49 c1 245 172 469 405 530 64 16 75
24 145 105 l47 55 -66 71 -66 71 -70 -12z"/>
<path d="M940 1802 c0 -4 27 -34 60 -67 33 -33 60 -64 60 -70 0 -6 -27 -37
-60 -70 -59 -59 -73 -79 -46 -69 7 3 51 0 97 -6 223 -31 414 -198 460 -406 11
-50 19 -61 86 -121 l74 -67 71 71 70 70 -16 77 c-69 333 -316 582 -648 651
-74 16 -208 20 -208 7z"/>
<path d="M687 1072 c-10 -10 -17 -24 -17 -30 0 -18 31 -14 46 6 10 13 17 15
31 6 26 -16 23 -48 -4 -52 -15 -2 -23 -10 -23 -22 0 -12 8 -20 23 -22 32 -4
31 -52 -1 -56 -13 -2 -25 3 -28 12 -7 17 -54 22 -54 6 0 -24 41 -50 80 -50 69
0 104 57 60 98 -18 17 -19 20 -5 32 20 16 19 54 -1 74 -22 22 -87 21 -107 -2z"/>
<path d="M871 1069 c-41 -44 -35 -165 9 -189 28 -15 77 -12 94 6 54 54 9 140
-64 121 -25 -6 -28 24 -4 44 12 10 20 10 35 1 22 -14 49 -16 49 -4 0 5 -8 16
-18 25 -26 24 -77 21 -101 -4z m77 -127 c2 -22 -2 -34 -12 -38 -22 -8 -46 13
-46 41 0 28 9 37 35 33 15 -2 21 -12 23 -36z"/>
<path d="M1044 1069 c-15 -16 -19 -36 -19 -89 0 -81 19 -110 71 -110 58 0 80
41 72 137 -3 39 -10 60 -23 69 -28 21 -79 17 -101 -7z m76 -28 c14 -28 12
-104 -4 -126 -8 -11 -19 -16 -30 -12 -13 5 -16 21 -16 75 0 38 3 72 7 75 12
13 32 7 43 -12z"/>
<path d="M1210 1071 c-16 -31 -12 -49 15 -67 23 -15 27 -15 50 0 27 18 33 54
13 74 -19 19 -66 15 -78 -7z m57 -12 c15 -15 5 -39 -17 -39 -22 0 -32 24 -17
39 6 6 14 11 17 11 3 0 11 -5 17 -11z"/>
<path d="M228 972 l-72 -70 21 -95 c83 -366 386 -627 748 -644 l110 -6 -25 29
c-13 16 -42 48 -64 71 -45 48 -48 39 43 136 l45 47 -44 0 c-246 1 -473 179
-533 418 -11 45 -23 61 -85 118 l-72 66 -72 -70z"/>
<path d="M1522 954 c-3 -89 -34 -189 -82 -264 -69 -108 -227 -218 -336 -236
-35 -5 -51 -17 -108 -80 l-67 -74 63 -70 63 -70 54 6 c211 23 435 167 565 363
84 126 140 311 134 440 l-3 63 -67 -61 c-36 -34 -70 -61 -75 -61 -5 0 -35 27
-68 60 -33 33 -62 60 -65 60 -3 0 -6 -34 -8 -76z"/>
</g>
</svg>
